<?xml version="1.0" standalone="yes"?>
<svg version="1.1" 
	viewBox="0.0 0.0 720.0 437.0"
	fill="none"
	stroke="none"
	stroke-linecap="square"
	stroke-miterlimit="10"
	xmlns="http://www.w3.org/2000/svg"
	xmlns:xlink="http://www.w3.org/1999/xlink">
	<g clip-path="url(#p.0)">
		<!-- Fill cloud -->
		<path
			fill="#ffffff"
			d="m90 230
				c0 0 0 -125 165 -125
				c0 0 158 0 150 87
				c0 0 3 -2 15 -2
				c0 0 110 0 110 105
				c0 0 0 110 -110 105
				l-330 0
				c0 0 -75 0 -75 -85
				c0 0 0 -75 75 -85
				z" 
			fill-rule="nonzero">
		</path>
		<!-- Outline cloud -->
		<path
			stroke="#000000" 
			stroke-width="4.0" 
			stroke-linejoin="round" 
			stroke-linecap="butt" 
			d="m90 230
				c0 0 0 -125 165 -125
				c0 0 158 0 150 87
				c0 0 3 -2 15 -2
				c0 0 110 0 110 105
				c0 0 0 110 -110 105
				l-330 0
				c0 0 -75 0 -75 -85
				c0 0 0 -75 75 -85
				z" 
			fill-rule="nonzero">
		</path>
		<!-- Fill first cast -->
		<path
			fill="#e69138"
			d="m420 130
				c0 0 167 0 167 167
				l-32 0
				c0 0 0 -135 -135 -135
				z"
			fill-rule="nonzero">
		</path>
		<!-- Fill second cast -->
		<path
			fill="#e69138"
			d="m420 68
				c0 0 229 0 229 229
				l-32 0
				c0 0 0 -197 -197 -197
				z"
			fill-rule="nonzero">
		</path>
		<!-- Fill third cast -->
		<path
			fill="#e69138"
			d="m420 6
				c0 0 291 0 291 291
				l-32 0
				c0 0 0 -259 -259 -259
				z"
			fill-rule="nonzero">
		</path>
		<!-- Outline first cast -->
		<path
			stroke="#000000"
			stroke-width="4.0"
			stroke-linejoin="round"
			stroke-linecap="butt"
			d="m420 130
				c0 0 167 0 167 167
				l-32 0
				c0 0 0 -135 -135 -135
				z"
			fill-rule="nonzero">
		</path>
		<!-- Outline second cast -->
		<path 
			stroke="#000000" 
			stroke-width="4.0" 
			stroke-linejoin="round" 
			stroke-linecap="butt" 
			d="m420 68
				c0 0 229 0 229 229
				l-32 0
				c0 0 0 -197 -197 -197
				z"
			fill-rule="nonzero">
		</path>
		<!-- Outline third cast -->
		<path
			stroke="#000000"
			stroke-width="4.0"
			stroke-linejoin="round" stroke-linecap="butt"
			d="m420 6
				c0 0 291 0 291 291
				l-32 0
				c0 0 0 -259 -259 -259
				z"
			fill-rule="nonzero">
		</path>
	</g>
</svg>
